<svg xmlns="http://www.w3.org/2000/svg" width="1.25em" height="1.25em" aria-hidden="true" class="dJtn-menu-item-icon" viewBox="0 0 200 200"><path d="M169.88 138.9a79.85 79.85 0 0 0-3.83-84c-.1-.15-.22-.29-.33-.44a79.91 79.91 0 0 0-131.3-.2c-.15.22-.33.43-.48.65-1.37 2-2.63 4.07-3.82 6.2a79.85 79.85 0 0 0 3.83 84c.1.15.22.29.33.44a79.91 79.91 0 0 0 131.3.2c.15-.22.33-.43.48-.65 1.37-2 2.63-4.1 3.82-6.2zM100 114.55a110.59 110.59 0 0 0-20.32 2 93.19 93.19 0 0 1-.05-33 111 111 0 0 0 20.37 2 110.17 110.17 0 0 0 20.37-2 96.15 96.15 0 0 1 1.45 16.45 98.18 98.18 0 0 1-1.5 16.52 111.13 111.13 0 0 0-20.32-1.97zm16.78 16.12a97.25 97.25 0 0 1-16.78 31 97.09 97.09 0 0 1-16.78-31 95.82 95.82 0 0 1 16.78-1.58 98.8 98.8 0 0 1 16.78 1.58zM83.17 69.32a101.72 101.72 0 0 1 16.83-31 101.79 101.79 0 0 1 16.83 31A95.33 95.33 0 0 1 100 70.91a98.56 98.56 0 0 1-16.83-1.59zm51.35 10.6a115.45 115.45 0 0 0 23.28-10.56 65.2 65.2 0 0 1 0 61.27 113 113 0 0 0-23.38-10.54 113.12 113.12 0 0 0 1.94-20.09 111.07 111.07 0 0 0-1.84-20.08zm15-22.59A100.53 100.53 0 0 1 131 65.78a115.69 115.69 0 0 0-14.12-28.95 65.42 65.42 0 0 1 32.64 20.5zm-66.39-20.5a115.75 115.75 0 0 0-14.08 28.85 98.56 98.56 0 0 1-18.56-8.37 65.51 65.51 0 0 1 32.64-20.48zM65.49 79.88a107.94 107.94 0 0 0 .07 40.17 115.19 115.19 0 0 0-23.36 10.59 65.2 65.2 0 0 1 0-61.27 113 113 0 0 0 23.29 10.51zm-15 62.79a100.14 100.14 0 0 1 18.61-8.47 112.19 112.19 0 0 0 14 29 65.4 65.4 0 0 1-32.62-20.53zm66.46 20.48a112.49 112.49 0 0 0 13.94-28.85 98.23 98.23 0 0 1 18.63 8.39 65.45 65.45 0 0 1-32.58 20.46z"/></svg>