<svg xmlns="http://www.w3.org/2000/svg" style="width:inherit;height:inherit;line-height:inherit;color:inherit" viewBox="0 0 200 200"><path d="M58.67 36.78c13.42 0 22.91 8.58 28.5 15.78l9.87 12.71a4.163 4.163 0 0 0 6.58 0l9.87-12.71c5.59-7.2 15.07-15.78 28.49-15.78.5 0 1 .01 1.52.03 7.96.35 15.45 3.73 21.1 9.52 5.62 5.76 8.72 13.28 8.72 21.19 0 14.73-9.73 33.18-28.14 53.34-16.52 18.08-31 31.94-44.12 42.26-.43.33-.65.33-.73.33-.08 0-.39-.07-.52-.16-13.58-10.76-28.08-24.63-44.33-42.42-18.41-20.16-28.15-38.61-28.15-53.34 0-7.9 3.1-15.43 8.72-21.19 5.65-5.79 13.14-9.17 21.11-9.52.51-.02 1.01-.03 1.5-.03m83.32-16.67c-20.29 0-34.08 12.46-41.66 22.22-7.58-9.76-21.37-22.22-41.66-22.22-.74 0-1.5.02-2.26.05-12.27.54-23.68 5.7-32.29 14.53-8.72 8.93-13.45 20.56-13.45 32.83 0 19.27 10.98 41.01 32.51 64.58 17.11 18.73 32.29 33.15 46.28 44.24 3.23 2.48 7.1 3.77 10.87 3.77s7.64-1.29 10.87-3.77c14.1-11.09 29.17-25.51 46.28-44.24 21.53-23.57 32.51-45.32 32.51-64.58 0-12.27-4.74-23.9-13.46-32.83-8.61-8.83-20.13-13.99-32.29-14.53-.76-.03-1.51-.05-2.26-.05z"/></svg>